# xmcd CD database file
#
# Track frame offsets:
#	150
#	21480
#	45547
#	64382
#	84870
#	102867
#	117440
#	129172
#	144102
#	161970
#	177602
#	202887
#	216765
#	236812
#	256880
#	276625
#	297702
#
# Disc length: 4129 seconds
#
# Revision: 1
# Processed by: cddbd v1.5.1PL0 Copyright (c) Steve Scherf et al.
# Submitted via: CDex 1.51
#
DISCID=08101f11
DTITLE=Bennie Smith - The Urban Soul Of
DYEAR=1993
DGENRE=Blues
TTITLE0=Last Night
TTITLE1=Got My Mojo Working
TTITLE2=Shook Up Over You
TTITLE3=Penrose After Hours
TTITLE4=Mystery Train
TTITLE5=Things I Use To Do
TTITLE6=Wish Me Well
TTITLE7=Steel Guitar Rag
TTITLE8=Boogie Chillun'
TTITLE9=Sweet Little Angel
TTITLE10=After Hours
TTITLE11=Wishing Well
TTITLE12=Ookie Dokie Stomp
TTITLE13=Stagger Lee
TTITLE14=Things I Used To Do
TTITLE15=Mess Around
TTITLE16=Theme From Shaft
EXTD=YEAR: 1993
EXTT0=
EXTT1=
EXTT2=
EXTT3=
EXTT4=
EXTT5=
EXTT6=
EXTT7=
EXTT8=
EXTT9=
EXTT10=
EXTT11=
EXTT12=
EXTT13=
EXTT14=
EXTT15=
EXTT16=
PLAYORDER=
